<svg width="18" height="18" viewBox="0 0 18 18" fill="none" xmlns="http://www.w3.org/2000/svg">
<g clip-path="url(#clip0_132_9)">
<path d="M17 4.1284L16.7263 3.69149L15.5398 4.32281L13.579 1.19296L14.72 0.585853L14.4463 0.148941L12.8311 1.0083L13.1587 1.53098C12.8968 1.54797 12.6609 1.55772 12.4441 1.55772C11.7941 1.55772 11.2767 1.47044 10.4291 1.28764C10.3329 1.26678 10.2346 1.25619 10.1369 1.25619C9.29295 1.25619 8.72852 2.00624 8.52505 2.32879C8.1349 2.94699 8.01026 3.14762 7.88599 3.34775C7.77705 3.52298 7.66847 3.69788 7.38069 4.1543L6.98196 3.93635L4.41093 7.51489H2.65835L0.171623 9.30677L0.169434 9.30744V11.357H1.17821V17.0186H1.72566V11.357H12.1616V17.0186H12.7091V11.357H13.7188V9.30744H13.7162L13.7189 9.30408L11.2209 7.51489H10.805L11.5371 6.4253L10.9638 6.11217L10.9939 6.10107C11.3311 5.9751 11.6417 5.93357 11.9977 5.96384C12.0649 5.96939 12.1333 5.97241 12.2029 5.97241C12.7047 5.97241 13.1852 5.81702 13.5209 5.5461C13.6127 5.47227 13.6958 5.41459 13.7985 5.35371L15.0785 4.59508L15.3398 5.01215L17 4.1284ZM13.1713 10.8524H0.716888V9.81179H13.1713V10.8524ZM11.0331 8.01941L12.8311 9.30744H1.0596L2.84685 8.01941H4.04852L3.80545 8.35777H3.24722V8.86229H10.6408V8.35777H10.2388L10.4661 8.01941H11.0331ZM10.778 6.59701L9.61011 8.3349L4.48064 8.3317L7.15131 4.61526L7.4754 4.79252L7.96574 5.10044C7.61391 5.37574 7.47522 5.83855 7.6577 6.2536C7.82668 6.6377 8.22742 6.88593 8.6787 6.88593C8.81977 6.88593 8.95791 6.8612 9.0893 6.8121L10.3262 6.35013L10.778 6.59701ZM13.5021 4.92907C13.3757 5.00408 13.2735 5.07488 13.1604 5.16603C12.9229 5.35774 12.5738 5.46756 12.2029 5.46756C12.1501 5.46756 12.0981 5.46521 12.0472 5.461C11.5974 5.42333 11.2076 5.47664 10.7882 5.63321L8.88364 6.34441C8.60881 6.44666 8.27487 6.31363 8.16501 6.06407C8.05077 5.80424 8.18727 5.50725 8.46903 5.4018L9.19587 5.13004L11.0397 4.35191C11.112 4.32147 11.1662 4.26361 11.1884 4.19315C11.2105 4.12285 11.1986 4.04718 11.1552 3.98563L11.1034 3.91197C10.9317 3.6666 10.663 3.51743 10.3475 3.49238C10.316 3.48969 10.2846 3.48868 10.2537 3.48868C9.97125 3.48868 9.71887 3.59109 9.52398 3.785C9.3528 3.95502 9.20061 4.20358 9.07835 4.40353C9.02105 4.49721 8.96174 4.59357 8.92086 4.64772C8.83856 4.69313 8.6183 4.78461 8.49622 4.82346L7.84858 4.41665C8.14129 3.95199 8.25096 3.77558 8.36118 3.59883C8.48509 3.39921 8.60936 3.19925 8.99842 2.58273C9.32288 2.06812 9.74861 1.76104 10.1369 1.76104C10.1926 1.76104 10.2486 1.7671 10.3041 1.77887C11.1747 1.96688 11.7446 2.06257 12.4441 2.06257C12.7459 2.06257 13.0812 2.04424 13.462 2.01565L14.804 4.1575L13.5021 4.92907ZM9.75445 4.3398C9.81102 4.25874 9.86905 4.18407 9.92562 4.12773C10.0156 4.03843 10.1262 3.99303 10.2541 3.99303C10.2692 3.99303 10.2846 3.99353 10.3003 3.99488C10.3627 3.99992 10.4192 4.01422 10.47 4.03776L9.75445 4.3398Z" fill="black" stroke="black" stroke-width="0.4" stroke-linejoin="round"/>
</g>
<defs>
<clipPath id="clip0_132_9">
<rect width="18" height="18" fill="white"/>
</clipPath>
</defs>
</svg>
